<svg version="1" xmlns="http://www.w3.org/2000/svg" viewBox="0, 0, 400,400"><path d="M176.8.279c-1.649.088-3.17.331-3.38.541s-1.593.38-3.076.38-2.808.18-2.944.4-1.137.4-2.224.4-1.976.18-1.976.4-.72.4-1.6.4-1.6.18-1.6.4-.979.4-2.176.4-2.288.18-2.424.4-.856.4-1.6.4-1.464.18-1.6.4-.777.4-1.424.4-1.176.18-1.176.4-.99.4-2.2.4-2.2.18-2.2.4-.349.4-.776.4-.888.18-1.024.4-.687.4-1.224.4-.976.18-.976.4-.599.4-1.332.4c-1.34 0-11.74 3.378-12.448 4.043-.209.196-.623.357-.919.357s-1.285.36-2.195.8-1.892.8-2.181.8-.525.18-.525.4-.439.4-.976.4-1.088.18-1.224.4-.597.4-1.024.4-.777.135-.779.3c-.004.359-1.941 1.3-2.677 1.3-.286 0-.52.18-.52.4s-.36.4-.8.4-.8.136-.8.302-.585.542-1.3.834c-2.276.93-3.1 1.39-3.1 1.732 0 .182-.36.332-.8.332s-.8.18-.8.4-.36.4-.8.4-.8.18-.8.4-.36.4-.8.4-.801.135-.803.3c-.004.359-1.941 1.3-2.677 1.3-.286 0-.52.158-.52.351s-.585.588-1.3.876-1.857.94-2.538 1.448-1.446.925-1.7.925-.462.18-.462.4-.236.4-.525.4-.911.36-1.383.8-1.012.8-1.2.8-.691.315-1.119.7-1.586 1.137-2.575 1.672-2.068 1.256-2.398 1.603-1.095.885-1.7 1.195-1.1.715-1.1.898-.178.332-.395.332c-.421 0-1.512.826-3.037 2.3-.512.495-1.12.9-1.35.9s-.419.135-.421.3-.676.75-1.5 1.3c-2.035 1.359-2.274 1.551-4.355 3.5-.998.935-1.975 1.7-2.169 1.7-.487 0-15.573 14.464-15.573 14.931 0 .086-1.44 1.614-3.2 3.396s-3.2 3.411-3.2 3.622-.585.998-1.3 1.751c-1.741 1.833-2.703 3.018-3.9 4.803-.55.82-1.135 1.493-1.3 1.494s-.3.191-.3.421-.405.838-.9 1.35c-1.474 1.525-2.3 2.616-2.3 3.037 0 .217-.15.395-.332.395s-.587.495-.898 1.1-.848 1.37-1.195 1.7-1.069 1.409-1.603 2.398-1.287 2.147-1.672 2.575-.7 1.014-.7 1.302-.15.525-.332.525-.58.495-.882 1.1-1.105 1.91-1.785 2.9-1.475 2.385-1.767 3.1-.689 1.3-.883 1.3-.351.234-.351.52c0 .736-.941 2.673-1.3 2.677-.165.002-.3.363-.3.803s-.18.8-.4.8-.4.36-.4.8-.18.8-.4.8-.4.36-.4.8-.15.8-.332.8-.519.405-.747.9l-.967 2.1c-.304.66-.643 1.29-.754 1.4-.234.233-.909 1.652-1.664 3.5-.292.715-.667 1.3-.834 1.3s-.302.349-.302.776-.18.888-.4 1.024-.4.556-.4.934-.534 1.762-1.187 3.076-1.194 2.669-1.2 3.01-.174.791-.37 1c-.665.708-4.043 11.108-4.043 12.448 0 .733-.18 1.332-.4 1.332s-.4.54-.4 1.2-.18 1.2-.4 1.2-.4.36-.4.8-.18.8-.4.8-.4.99-.4 2.2-.18 2.2-.4 2.2-.4.529-.4 1.176-.18 1.288-.4 1.424-.4.676-.4 1.2-.18 1.064-.4 1.2-.4 1.216-.4 2.4-.18 2.264-.4 2.4-.4 1.047-.4 2.024-.18 1.776-.4 1.776-.4.889-.4 1.976-.18 2.088-.4 2.224-.4 1.461-.4 2.944c0 1.623-.199 2.895-.5 3.196-.73.73-.73 52.19 0 52.92.301.301.5 1.573.5 3.196 0 1.483.18 2.808.4 2.944s.4 1.137.4 2.224.18 1.976.4 1.976.4.799.4 1.776.18 1.888.4 2.024.4 1.216.4 2.4.18 2.264.4 2.4.4.676.4 1.2.18 1.064.4 1.2.4.777.4 1.424.18 1.176.4 1.176.4.99.4 2.2.18 2.2.4 2.2.4.36.4.8.18.8.4.8.4.54.4 1.2.18 1.2.4 1.2.4.599.4 1.332c0 1.34 3.378 11.74 4.043 12.448.196.209.363.659.37 1s.546 1.695 1.2 3.01 1.187 2.699 1.187 3.076.18.798.4.934.4.597.4 1.024.136.776.302.776.542.585.834 1.3c.755 1.848 1.43 3.267 1.664 3.5.111.11.426.695.701 1.3 1.224 2.697 1.454 3.1 1.767 3.1.182 0 .332.36.332.8s.18.8.4.8.4.36.4.8.18.8.4.8.4.36.4.8.135.801.3.803c.359.004 1.3 1.941 1.3 2.677 0 .286.158.52.351.52s.591.585.883 1.3 1.124 2.131 1.848 3.148 1.318 1.974 1.318 2.128c0 .278 2.339 3.84 2.774 4.224.124.11.663 1.01 1.198 2s1.256 2.07 1.603 2.4.885 1.095 1.195 1.7.715 1.1.898 1.1.332.178.332.395c0 .421.826 1.512 2.3 3.037.495.512.9 1.12.9 1.35s.141.418.314.418.609.495.971 1.1c.782 1.308 2.422 3.335 4.215 5.21.715.747 1.3 1.531 1.3 1.741s1.44 1.841 3.2 3.622 3.2 3.31 3.2 3.396c0 .467 15.086 14.931 15.573 14.931.194 0 1.154.765 2.132 1.7s2.182 1.97 2.674 2.3c.833.558 1.947 1.417 3.104 2.393.266.224.589.407.718.407s.655.405 1.167.9c1.525 1.474 2.616 2.3 3.037 2.3.217 0 .395.15.395.332s.495.587 1.1.898 1.37.848 1.7 1.195 1.409 1.069 2.398 1.603 2.147 1.287 2.575 1.672.931.7 1.119.7.728.36 1.2.8 1.095.8 1.383.8.525.18.525.4.208.4.462.4 1.019.411 1.7.914 1.688 1.131 2.238 1.397 1.27.653 1.6.86 1.185.613 1.9.901 1.3.659 1.3.826.36.302.8.302.8.18.8.4.36.4.8.4.8.18.8.4.36.4.8.4.8.15.8.332c0 .313.403.543 3.1 1.767.605.275 1.19.59 1.3.701.233.234 1.652.909 3.5 1.664.715.292 1.3.667 1.3.834s.349.302.776.302.888.18 1.024.4.687.4 1.224.4.976.18.976.4.236.4.525.4 1.27.36 2.181.8 1.898.8 2.195.8a1.53 1.53 0 0 1 .919.365c.209.201 1.73.821 3.38 1.379l5.29 1.835c1.26.452 2.925.821 3.7.821s1.41.18 1.41.4.349.4.776.4.888.18 1.024.4.687.4 1.224.4.976.18.976.4.99.4 2.2.4 2.2.18 2.2.4.529.4 1.176.4 1.288.18 1.424.4.856.4 1.6.4 1.464.18 1.6.4 1.227.4 2.424.4 2.176.18 2.176.4.72.4 1.6.4 1.6.18 1.6.4.889.4 1.976.4 2.088.18 2.224.4 1.461.4 2.944.4c1.623 0 2.895.199 3.196.5.39.39 6.225.5 26.46.5s26.07-.11 26.46-.5c.301-.301 1.573-.5 3.196-.5 1.483 0 2.808-.18 2.944-.4s1.137-.4 2.224-.4 1.976-.18 1.976-.4.72-.4 1.6-.4 1.6-.18 1.6-.4.979-.4 2.176-.4 2.288-.18 2.424-.4.856-.4 1.6-.4 1.464-.18 1.6-.4.777-.4 1.424-.4 1.176-.18 1.176-.4.99-.4 2.2-.4 2.2-.18 2.2-.4.439-.4.976-.4 1.088-.18 1.224-.4.597-.4 1.024-.4.776-.18.776-.4.634-.4 1.41-.4 2.44-.369 3.7-.821l5.29-1.835c1.65-.558 3.171-1.178 3.38-1.379a1.53 1.53 0 0 1 .919-.365c.297 0 1.285-.36 2.195-.8s1.892-.8 2.181-.8.525-.18.525-.4.439-.4.976-.4 1.088-.18 1.224-.4.597-.4 1.024-.4.776-.136.776-.302.585-.542 1.3-.834c1.848-.755 3.267-1.43 3.5-1.664.11-.111.65-.402 1.2-.647 2.513-1.121 3.2-1.511 3.2-1.821 0-.182.36-.332.8-.332s.8-.18.8-.4.36-.4.8-.4.8-.18.8-.4.36-.4.8-.4.8-.136.8-.302.585-.538 1.3-.826 1.57-.693 1.9-.901 1.05-.597 1.6-.867 1.831-1.079 2.848-1.797 1.974-1.307 2.128-1.307c.278 0 3.84-2.339 4.224-2.774.11-.124 1.01-.663 2-1.198s2.07-1.256 2.4-1.603 1.095-.885 1.7-1.195 1.1-.715 1.1-.898.178-.332.395-.332c.421 0 1.512-.826 3.037-2.3.512-.495 1.12-.9 1.35-.9s.418-.152.418-.339.339-.501.754-.7c1.049-.502 3.007-2.054 5.126-4.061.986-.935 1.953-1.7 2.147-1.7.487 0 15.573-14.464 15.573-14.931 0-.086 1.44-1.614 3.2-3.396s3.2-3.411 3.2-3.622.585-.992 1.3-1.738c1.826-1.904 4.034-4.651 4.461-5.552.199-.418.514-.761.7-.761s.339-.188.339-.418.405-.838.9-1.35c1.474-1.525 2.3-2.616 2.3-3.037 0-.217.15-.395.332-.395s.587-.495.898-1.1.848-1.37 1.195-1.7 1.069-1.41 1.603-2.4 1.074-1.89 1.198-2c.435-.384 2.774-3.946 2.774-4.224 0-.154.588-1.112 1.307-2.128s1.527-2.298 1.797-2.848.66-1.27.867-1.6.613-1.185.901-1.9.659-1.3.826-1.3.302-.36.302-.8.18-.8.4-.8.4-.36.4-.8.18-.8.4-.8.4-.36.4-.8.15-.8.332-.8c.313 0 .543-.403 1.767-3.1.275-.605.59-1.19.701-1.3.234-.233.909-1.652 1.664-3.5.292-.715.667-1.3.834-1.3s.302-.349.302-.776.18-.888.4-1.024.4-.556.4-.934.534-1.762 1.187-3.076 1.194-2.669 1.2-3.01.177-.791.378-1 .821-1.73 1.379-3.38l1.835-5.29c.452-1.26.821-2.925.821-3.7s.18-1.41.4-1.41.4-.54.4-1.2.18-1.2.4-1.2.4-.36.4-.8.18-.8.4-.8.4-.99.4-2.2.18-2.2.4-2.2.4-.529.4-1.176.18-1.288.4-1.424.4-.676.4-1.2.18-1.064.4-1.2.4-1.216.4-2.4.18-2.264.4-2.4.4-1.047.4-2.024.18-1.776.4-1.776.4-.889.4-1.976.18-2.088.4-2.224.4-1.461.4-2.944c0-1.623.199-2.895.5-3.196.39-.39.5-6.225.5-26.46s-.11-26.07-.5-26.46c-.301-.301-.5-1.573-.5-3.196 0-1.483-.18-2.808-.4-2.944s-.4-1.137-.4-2.224-.18-1.976-.4-1.976-.4-.799-.4-1.776-.18-1.888-.4-2.024-.4-1.216-.4-2.4-.18-2.264-.4-2.4-.4-.676-.4-1.2-.18-1.064-.4-1.2-.4-.777-.4-1.424-.18-1.176-.4-1.176-.4-.99-.4-2.2-.18-2.2-.4-2.2-.4-.36-.4-.8-.18-.8-.4-.8-.4-.54-.4-1.2-.18-1.2-.4-1.2-.4-.599-.4-1.332c0-1.34-3.378-11.74-4.043-12.448-.196-.209-.363-.659-.37-1s-.546-1.695-1.2-3.01-1.187-2.699-1.187-3.076-.18-.798-.4-.934-.4-.597-.4-1.024-.136-.776-.302-.776-.542-.585-.834-1.3c-.755-1.848-1.43-3.267-1.664-3.5-.111-.11-.402-.65-.647-1.2-1.121-2.513-1.511-3.2-1.821-3.2-.182 0-.332-.36-.332-.8s-.18-.8-.4-.8-.4-.36-.4-.8-.18-.8-.4-.8-.4-.36-.4-.8-.136-.8-.302-.8-.538-.585-.826-1.3-.693-1.57-.901-1.9-.597-1.05-.867-1.6-1.042-1.81-1.716-2.8-1.472-2.295-1.774-2.9-.699-1.1-.882-1.1-.332-.236-.332-.525-.315-.874-.7-1.302-1.137-1.586-1.672-2.575-1.256-2.068-1.603-2.398-.885-1.095-1.195-1.7-.715-1.1-.898-1.1-.332-.178-.332-.395c0-.421-.826-1.512-2.3-3.037-.495-.512-.9-1.043-.9-1.178s-.225-.482-.5-.77-.77-.918-1.1-1.402c-.932-1.368-2.475-3.238-3.9-4.728-.715-.747-1.3-1.531-1.3-1.741s-1.44-1.841-3.2-3.622-3.2-3.31-3.2-3.396c0-.467-15.086-14.931-15.573-14.931-.194 0-1.162-.765-2.151-1.7-2.075-1.964-3.234-2.889-4.776-3.813-.605-.363-1.1-.801-1.1-.973s-.188-.314-.418-.314-.838-.405-1.35-.9c-1.525-1.474-2.616-2.3-3.037-2.3-.217 0-.395-.15-.395-.332s-.495-.587-1.1-.898-1.37-.848-1.7-1.195-1.41-1.069-2.4-1.603-1.89-1.074-2-1.198c-.384-.435-3.946-2.774-4.224-2.774-.154 0-1.112-.593-2.128-1.318s-2.433-1.556-3.148-1.848-1.3-.689-1.3-.883-.234-.351-.52-.351c-.736 0-2.673-.941-2.677-1.3-.002-.165-.363-.3-.803-.3s-.8-.18-.8-.4-.36-.4-.8-.4-.8-.18-.8-.4-.36-.4-.8-.4-.8-.15-.8-.332c0-.342-.824-.802-3.1-1.732-.715-.292-1.3-.667-1.3-.834s-.36-.302-.8-.302-.8-.18-.8-.4-.234-.4-.52-.4c-.736 0-2.673-.941-2.677-1.3-.002-.165-.352-.3-.779-.3s-.888-.18-1.024-.4-.687-.4-1.224-.4-.976-.18-.976-.4-.236-.4-.525-.4-1.27-.36-2.181-.8-1.898-.8-2.195-.8-.71-.161-.919-.357c-.708-.665-11.108-4.043-12.448-4.043-.733 0-1.332-.18-1.332-.4s-.439-.4-.976-.4-1.088-.18-1.224-.4-.597-.4-1.024-.4-.776-.18-.776-.4-.99-.4-2.2-.4-2.2-.18-2.2-.4-.529-.4-1.176-.4-1.288-.18-1.424-.4-.856-.4-1.6-.4-1.464-.18-1.6-.4-1.227-.4-2.424-.4S240 3.42 240 3.2s-.72-.4-1.6-.4-1.6-.18-1.6-.4-.889-.4-1.976-.4-2.088-.18-2.224-.4-1.461-.4-2.944-.4c-1.623 0-2.895-.199-3.196-.5-.489-.49-41.797-.84-49.66-.421m42.8 33.896c15.219 2.087 25.593 4.599 38.669 9.367 1.799.655 3.959 1.495 4.8 1.866l2.331.992c21.442 8.535 47.51 27.824 62.4 46.174l2.634 3.199c1.28 1.521 7.166 9.402 7.166 9.596 0 .079 1.26 2.047 2.8 4.375s2.8 4.345 2.8 4.483.339.727.753 1.311C346.076 118.531 354 134.456 354 135.73c0 .281.152.681.338.89s.743 1.46 1.239 2.78l1.244 3.2c.189.44.914 2.6 1.612 4.8l1.572 4.8c.742 1.957 2.681 9.689 3.76 15 4.773 23.474 4.031 51.178-1.987 74.2l-1.193 4.6a17.86 17.86 0 0 1-.567 1.8c-.174.44-.887 2.6-1.585 4.8s-1.424 4.36-1.613 4.8-.932 2.33-1.65 4.2c-2.923 7.608-7.549 16.991-11.901 24.141-.918 1.507-1.669 2.902-1.669 3.1s-.158.359-.351.359-.576.54-.849 1.2-.626 1.2-.784 1.2-.498.405-.756.9a25.12 25.12 0 0 1-1.164 1.936l-1.758 2.632c-1.027 1.543-6.563 8.599-8.693 11.079-9.495 11.058-23.307 23.53-32.402 29.258-1.866 1.175-3.123 2.061-3.818 2.692-.427.387-1.012.703-1.3.703s-.525.18-.525.4-.162.4-.359.4-1.593.751-3.1 1.669c-6.799 4.138-16.292 8.866-23.141 11.524-1.32.513-2.571 1.084-2.78 1.269s-.758.338-1.22.338-1.011.147-1.22.328-2.27.921-4.58 1.648l-5 1.638c-.44.176-1.25.433-1.8.571l-4.6 1.193c-27.34 7.147-59.462 6.772-86.8-1.014-.88-.25-1.96-.592-2.4-.759s-2.6-.874-4.8-1.572-4.36-1.423-4.8-1.612-1.88-.749-3.2-1.244-2.571-1.054-2.78-1.239-.613-.338-.898-.338c-.473 0-2.271-.794-9.122-4.027-5.351-2.526-11.736-6.173-17.509-10.002-1.966-1.304-3.639-2.371-3.719-2.371-.196 0-8.067-5.876-9.599-7.166l-3.199-2.634c-13.81-11.206-28.454-28.88-38.28-46.2-1.856-3.272-6.726-13.265-7.894-16.2-.175-.44-.622-1.489-.992-2.331-11.284-25.622-15.087-61.501-9.772-92.193 1.44-8.312 4.968-21.8 6.77-25.876.195-.44.646-1.7 1.003-2.8s.924-2.63 1.261-3.4c.681-1.558.942-2.188 1.99-4.8C61.274 97.591 97.591 61.274 134 46.66l4.8-1.99c.77-.337 2.3-.904 3.4-1.261s2.36-.808 2.8-1.003c7.89-3.487 29.656-8.009 43.2-8.974 5.208-.371 27.04.146 31.4.743" fill="#fbfbfb"/><path d="M191.8 33.839c-7.154.444-18.978 1.919-23.8 2.971l-3.8.782c-1.1.214-2.72.586-3.6.825l-3 .783c-1.3.322-2.348.611-5.7 1.573l-2.3.633c-1.058.276-2.542.855-3.695 1.441-.382.194-.969.353-1.305.353s-.923.167-1.305.37-1.955.849-3.495 1.434c-3.95 1.5-6.169 2.465-12.2 5.307-3.613 1.703-7.403 3.749-14.131 7.628C99.74 65.854 82.655 80.771 71.249 94.8c-5.043 6.204-10.839 14.334-13.238 18.569l-1.677 2.931c-2.859 4.953-4.662 8.342-6.226 11.7-2.784 5.978-3.676 8.039-5.104 11.8-.585 1.54-1.23 3.113-1.434 3.495s-.37.969-.37 1.305c0 .593-.166 1.016-1.138 2.895a4.87 4.87 0 0 0-.462 1.876c0 .54-.159 1.08-.354 1.2s-.45.716-.567 1.324-.42 1.825-.673 2.705-.615 2.23-.806 3l-.784 3a52.56 52.56 0 0 0-.776 3.4l-.964 4.8c-.671 3.223-1.549 9.249-2.33 16-.629 5.438-.629 25.397 0 30.6 1.682 13.911 3.226 21.762 6.45 32.8l.61 2.2c.144.55.408 1.36.587 1.8s.543 1.43.807 2.2.624 1.76.8 2.2.539 1.43.807 2.2c.455 1.309.722 1.967 2.15 5.3a162.09 162.09 0 0 0 5.455 11.7c2.854 5.624 4.062 7.808 5.235 9.462.414.584.753 1.173.753 1.31 0 .297 6.375 9.729 9.088 13.447 5.243 7.184 15.342 18.133 22.512 24.406l3.6 3.177c.11.112.859.694 1.665 1.294s1.706 1.322 2 1.602c1.64 1.565 15.937 11.502 16.55 11.502.132 0 1.026.54 1.985 1.2s1.922 1.2 2.139 1.2.454.158.528.351c.155.409 13.898 7.189 17.133 8.452l3.4 1.384c1.694.742 4.491 1.788 6.6 2.471.99.32 2.16.733 2.6.917s1.61.555 2.6.825 2.16.638 2.6.818c1.15.471 7.295 2.027 11.2 2.837 9.279 1.925 13.48 2.542 22.8 3.346 10.117.874 28.909.454 34.4-.768.44-.098 2.24-.382 4-.632s3.92-.607 4.8-.794l4-.804c1.32-.255 3.075-.629 3.9-.833 5.854-1.444 7.945-2.001 8.9-2.37.44-.17 1.61-.53 2.6-.8s2.16-.642 2.6-.825 1.61-.597 2.6-.917c1.977-.64 4.949-1.735 6.2-2.284l5.2-2.201c5.139-2.161 14.865-7.031 17.272-8.649.92-.618 1.865-1.124 2.1-1.124s.428-.18.428-.4.185-.4.412-.4c.999 0 18.003-12.01 20.388-14.4.11-.111 1.55-1.364 3.2-2.785 3.853-3.32 11.495-10.962 14.815-14.815l2.785-3.2c2.39-2.385 14.4-19.389 14.4-20.388 0-.227.159-.412.353-.412s.454-.315.576-.7c.228-.719 1.5-2.943 1.888-3.3.517-.476 6.067-11.783 7.756-15.8l2.201-5.2c.549-1.251 1.644-4.223 2.284-6.2.32-.99.733-2.16.917-2.6s.555-1.61.825-2.6.63-2.16.8-2.6c.312-.808.96-3.15 1.633-5.9l.737-3c.204-.825.578-2.58.833-3.9l.799-4c.834-3.952 1.923-12.575 2.399-18.98 1.085-14.628-.2-31.488-3.614-47.42-.813-3.791-2.342-9.758-2.769-10.8-.18-.44-.548-1.61-.818-2.6s-.642-2.16-.825-2.6-.597-1.61-.917-2.6c-2.542-7.861-10.901-25.66-14.305-30.462-.414-.584-.753-1.175-.753-1.313 0-.621-9.919-14.902-11.502-16.56-.28-.294-1.002-1.194-1.604-2-3.758-5.033-14.431-15.951-20.821-21.297C301.549 68.109 287.589 58 286.575 58c-.138 0-.729-.339-1.313-.753-3.157-2.238-14.573-8.021-21.062-10.67l-2.8-1.168c-.66-.283-1.83-.734-2.6-1.002s-1.76-.631-2.2-.807-1.43-.536-2.2-.8-1.76-.628-2.2-.807-1.25-.443-1.8-.587a97.31 97.31 0 0 1-2.2-.61c-18.232-5.325-39.803-7.985-56.4-6.957" fill="#040404"/><path d="M188.912 33.895c1.052.082 2.672.081 3.6-.003s.068-.151-1.912-.15-2.74.07-1.688.153m18.8 0c1.052.082 2.672.081 3.6-.003s.068-.151-1.912-.15-2.74.07-1.688.153m-29.312.907c-.6.193.04.235 1.6.104l2.767-.362c.322-.279-3.379-.06-4.367.258m38.833-.258c.092.079 1.337.242 2.767.362 1.56.131 2.2.089 1.6-.104-.988-.318-4.689-.537-4.367-.258M168.6 36.4c-1.019.438.032.438 1.4 0 .804-.257.843-.323.2-.332-.44-.006-1.16.143-1.6.332m61.4 0c1.368.438 2.419.438 1.4 0-.44-.189-1.16-.338-1.6-.332-.643.009-.604.075.2.332m-65.2.8c-.804.257-.843.323-.2.332.44.006 1.16-.143 1.6-.332 1.019-.438-.032-.438-1.4 0m-6.8 1.6c-.533.345-.533.388 0 .388.33 0 .87-.175 1.2-.388.533-.345.533-.388 0-.388-.33 0-.87.175-1.2.388m108.4 8.565c0 .202 4.368 2.243 4.748 2.219.334-.021-1.75-1.142-3.42-1.84-.73-.305-1.328-.476-1.328-.379M129.6 49c-.99.53-1.62.964-1.4.964s1.21-.434 2.2-.964 1.62-.964 1.4-.964-1.21.434-2.2.964m-8.1 4.029c-1.495.811-1.404 1.149.1.371.66-.341 1.2-.706 1.2-.81 0-.258-.043-.243-1.3.439m-4.4 2.4c-1.495.811-1.404 1.149.1.371.66-.341 1.2-.706 1.2-.81 0-.258-.043-.243-1.3.439m168.1 1.735c.55.45 1.18.819 1.4.821.428.003-.295-.551-1.6-1.225-.531-.275-.464-.139.2.404m-180.107 5.85c-.821.558-1.493 1.101-1.493 1.206s.72-.285 1.6-.867c1.397-.925 1.87-1.353 1.493-1.353-.059 0-.779.456-1.6 1.014m188.107-.89c0 .093.765.674 1.7 1.291s1.489.865 1.231.553c-.497-.601-2.931-2.132-2.931-1.844m-191.6 3.525c-1.394 1.222-1.395 1.223-.112.37.708-.471 1.394-1.028 1.524-1.238.385-.624.065-.427-1.412.868m195.359-.915c.133.215 1.161 1.052 2.283 1.858s1.932 1.29 1.799 1.074-1.161-1.052-2.283-1.858-1.932-1.29-1.799-1.074m4.641 3.394c0 .1 1.305 1.205 2.9 2.454 1.946 1.525 2.308 1.73 1.1.623-1.963-1.799-4-3.366-4-3.077M90.975 74.1L89.8 75.4l1.3-1.175c1.212-1.095 1.484-1.425 1.175-1.425-.069 0-.654.585-1.3 1.3M307.6 72.925c0 .069.585.654 1.3 1.3l1.3 1.175-1.175-1.3c-1.095-1.212-1.425-1.484-1.425-1.175m2.8 2.4c0 .069.585.654 1.3 1.3L313 77.8l-1.175-1.3c-1.095-1.212-1.425-1.484-1.425-1.175M86.585 78.1L84.6 80.2l2.1-1.985C88.651 76.371 88.983 76 88.685 76c-.063 0-1.008.945-2.1 2.1m-4.4 4.4L80.2 84.6l2.1-1.985c1.951-1.844 2.283-2.215 1.985-2.215-.063 0-1.008.945-2.1 2.1M320 84.646c0 .208 1.125 1.453 2.5 2.767L325 89.8l-2.4-2.59-2.5-2.767c-.055-.097-.1-.006-.1.203M77.785 86.9L75.8 89l2.1-1.985c1.951-1.844 2.283-2.215 1.985-2.215-.063 0-1.008.945-2.1 2.1m-4.01 4.4L72.6 92.6l1.3-1.175C75.112 90.33 75.384 90 75.075 90c-.069 0-.654.585-1.3 1.3M324.8 90.125c0 .069.585.654 1.3 1.3l1.3 1.175-1.175-1.3c-1.095-1.212-1.425-1.484-1.425-1.175m3.942 4.475c1.449 2.057 2.044 2.748 2.213 2.571.09-.094-.561-.981-1.447-1.971s-1.23-1.26-.766-.6m4.233 5.532c.616.807 1.201 1.468 1.3 1.468.278 0-1.454-2.34-1.966-2.656-.25-.155.05.38.666 1.188m-267.6 1.736c-.616.808-.916 1.343-.666 1.188.512-.316 2.244-2.656 1.966-2.656-.099 0-.684.661-1.3 1.468m272.08 4.532l2.027 2.8c.213 0-.084-.499-1.967-3.3-.849-1.265-1.63-2.3-1.733-2.3s.649 1.26 1.673 2.8m4.56 7c.002.22.371.85.821 1.4.543.664.679.731.404.2-.674-1.305-1.228-2.028-1.225-1.6m-286.629 3.9l-.634 1.3.815-1c.785-.963 1.041-1.6.643-1.6-.104 0-.475.585-.824 1.3M53 121.6c-.341.66-.531 1.2-.421 1.2s.48-.54.821-1.2.531-1.2.421-1.2-.48.54-.821 1.2m-4.125 8.219c-1.205 2.481-1.07 2.828.171.442.555-1.067.941-2.008.857-2.091s-.546.658-1.028 1.649M350.436 129c0 .22.434 1.21.964 2.2s.964 1.62.964 1.4-.434-1.21-.964-2.2-.964-1.62-.964-1.4m4.01 9.2c.007.22.36 1.12.783 2s.657 1.15.52.6c-.282-1.133-1.324-3.212-1.303-2.6M38.6 158.4c-.15.473-.183.95-.073 1.06s.323-.187.473-.66.183-.95.073-1.06-.323.187-.473.66m-1.55 6.85c-.333 1.667-.01 1.99.35.35.152-.691.193-1.341.091-1.442s-.3.389-.441 1.092m325.406-.85c0 .33.155.96.344 1.4.217.504.344.578.344.2 0-.33-.155-.96-.344-1.4-.217-.504-.344-.578-.344-.2M36.2 169.2c-.152.691-.193 1.341-.091 1.442s.3-.389.441-1.092c.333-1.667.01-1.99-.35-.35m327.056-.8c0 .33.155.96.344 1.4.217.504.344.578.344.2 0-.33-.155-.96-.344-1.4-.217-.504-.344-.578-.344-.2m-327.963 7.2c0 .77.082 1.085.183.7s.1-1.015 0-1.4-.183-.07-.183.7m329.577 2.2c-.013.44.125 1.52.307 2.4.278 1.345.331 1.409.33.4-.002-1.401-.599-4.03-.637-2.8m-330.361 3.4c0 .99.078 1.395.173.9s.096-1.305 0-1.8-.173-.09-.173.9m331.622 8.2c.002 1.54.074 2.121.161 1.291s.085-2.09-.003-2.8-.16-.031-.158 1.509m-332.389 1.2c-.001 1.98.066 2.84.15 1.912s.085-2.548.003-3.6-.152-.292-.153 1.688m0 18.8c-.001 1.98.066 2.84.15 1.912s.085-2.548.003-3.6-.152-.292-.153 1.688m332.334.644l-.265 4.2-.189 1.956.407-1.954c.224-1.075.343-2.965.265-4.2l-.143-2.246-.075 2.244M34.509 218.8c0 .99.078 1.395.173.9s.096-1.305 0-1.8-.173-.09-.173.9m330.524 1.633c-.15 1.133-.192 2.141-.094 2.239s.306-.744.461-1.872.198-2.136.094-2.239-.31.739-.461 1.872M36.068 229.8c-.006.44.143 1.16.332 1.6.438 1.019.438-.032 0-1.4-.257-.804-.323-.843-.332-.2m327.332 1c-.152.691-.193 1.341-.091 1.442s.3-.389.441-1.092.181-1.352.091-1.442-.289.401-.441 1.092m-.771 3.829c-.148.586-.191 1.143-.097 1.237s.292-.308.439-.895.191-1.143.097-1.237-.292.308-.439.895M354.39 261.8l-.815 2.1c-.234.605-.261.92-.06.7.471-.517 1.743-3.8 1.472-3.8-.114 0-.382.45-.597 1m-306.646 5.928c.698 1.67 1.819 3.754 1.84 3.42.024-.38-2.017-4.748-2.219-4.748-.097 0 .074.598.379 1.328m303.921.489c-.67 1.471-.542 1.785.182.448.339-.625.541-1.211.449-1.302s-.375.293-.631.854m-13.949 24.98l-2.861 4.569c.541-.334 6.56-9.366 6.242-9.366-.083 0-1.604 2.159-3.381 4.797m-275.039 1.234c.398.677.979 1.442 1.291 1.7s.064-.296-.553-1.231c-1.295-1.963-1.806-2.288-.738-.469m3.131 4.327c.806 1.122 1.643 2.15 1.858 2.283s-.267-.676-1.074-1.799-1.643-2.15-1.858-2.283.267.676 1.074 1.799m267.907.142c-1.734 2.267-2.649 3.62-2.306 3.413.472-.286 3.128-3.913 2.865-3.913-.097 0-.348.225-.559.5m-263.166 6.016c1.071 1.256 2.033 2.284 2.137 2.284.268 0-3.063-3.939-3.622-4.283-.255-.156.413.743 1.485 1.999m259.61-1.216c-1.752 2.021-2.272 2.7-2.069 2.7.117 0 .877-.81 1.689-1.8 1.502-1.834 1.8-2.537.38-.9M72.8 307.725c0 .069.585.654 1.3 1.3l1.3 1.175-1.175-1.3c-1.095-1.212-1.425-1.484-1.425-1.175m253 1.075c-.632.66-.981 1.19-.775 1.178.353-.021 2.414-2.378 2.08-2.378-.085 0-.673.54-1.305 1.2M76.6 312c.859.88 1.652 1.6 1.762 1.6s-.503-.72-1.362-1.6-1.652-1.6-1.762-1.6.503.72 1.362 1.6m246.775-.3L322.2 313l1.3-1.175c.715-.646 1.3-1.231 1.3-1.3 0-.309-.33-.037-1.425 1.175M87.8 323.2c.859.88 1.652 1.6 1.762 1.6s-.503-.72-1.362-1.6-1.652-1.6-1.762-1.6.503.72 1.362 1.6m223.575.5L310.2 325l1.3-1.175c.715-.646 1.3-1.231 1.3-1.3 0-.309-.33-.037-1.425 1.175M90 324.925c0 .069.585.654 1.3 1.3l1.3 1.175-1.175-1.3C90.33 324.888 90 324.616 90 324.925m218.571 1.178l-1.171 1.294 1.2-.998c.66-.55 1.275-1.044 1.367-1.099s.078-.188-.029-.296-.723.387-1.367 1.099M95.2 329.508c.99.886 1.877 1.537 1.971 1.447.177-.169-.514-.764-2.571-2.213-.66-.464-.39-.12.6.766m205.4 2.924c-2.373 1.794-2.692 2.3-.467.74 1.681-1.178 2.596-1.997 2.191-1.961-.068.006-.844.556-1.724 1.221m-201.656-.123c.316.512 2.656 2.244 2.656 1.966 0-.099-.661-.684-1.468-1.3s-1.343-.916-1.188-.666m194.856 4.949c-4.682 3.245-5.824 4.087-5 3.688 1.18-.571 8.743-5.731 8.993-6.134.355-.575.448-.632-3.993 2.446m-190.2-1.476c0 .103 1.035.884 2.3 1.733 2.801 1.883 3.3 2.18 3.3 1.967 0-.09-1.26-1.002-2.8-2.027s-2.8-1.777-2.8-1.673m10 6.638c1.387.941 2.178 1.215 1.2.416-.55-.45-1.18-.819-1.4-.821s-.13.181.2.405m16.8 8.98c.99.53 1.98.964 2.2.964s-.41-.434-1.4-.964-1.98-.964-2.2-.964.41.434 1.4.964m137.6.4c-.55.314-.82.572-.6.572s.85-.258 1.4-.572.82-.572.6-.572-.85.258-1.4.572m-5.067 2.122c-.917.373-1.817.829-2 1.014-.421.424 3.133-.937 3.647-1.396s.3-.409-1.647.382m-4.733 1.892c-1.615.74-.649.741 1.054.002.74-.322 1.076-.577.746-.568s-1.14.264-1.8.566m-93.6 6.986c.44.189 1.07.344 1.4.344.378 0 .304-.127-.2-.344-.44-.189-1.07-.344-1.4-.344-.378 0-.304.127.2.344m69.6 0c-.504.217-.578.344-.2.344.33 0 .96-.155 1.4-.344.504-.217.578-.344.2-.344-.33 0-.96.155-1.4.344m-65.6.8c.44.189 1.07.344 1.4.344.378 0 .304-.127-.2-.344-.44-.189-1.07-.344-1.4-.344-.378 0-.304.127.2.344m61.6 0c-1.019.438.032.438 1.4 0 .804-.257.843-.323.2-.332-.44-.006-1.16.143-1.6.332m-52 1.6c.66.168 1.74.306 2.4.307 1.009.001.945-.052-.4-.33-2.026-.419-3.663-.4-2 .023m6.3.676c.385.1 1.015.1 1.4 0s.07-.183-.7-.183-1.085.082-.7.183m29.6 0c.385.1 1.015.1 1.4 0s.07-.183-.7-.183-1.085.082-.7.183m-26.209.413c.71.088 1.97.09 2.8.003s.249-.159-1.291-.161-2.219.069-1.509.158m21.2 0c.71.088 1.97.09 2.8.003s.249-.159-1.291-.161-2.219.069-1.509.158" fill="#565656"/><path d="M82.8 81.4c-.972.99-1.677 1.8-1.567 1.8s.995-.81 1.967-1.8 1.677-1.8 1.567-1.8-.995.81-1.967 1.8M366.554 200c0 2.75.064 3.875.142 2.5a53.45 53.45 0 0 0 0-5c-.078-1.375-.142-.25-.142 2.5M197.5 366.696a53.45 53.45 0 0 0 5 0c1.375-.078.25-.142-2.5-.142s-3.875.064-2.5.142" fill="#747474"/><path d="M194.9 33.499a251.33 251.33 0 0 0 10.2 0c2.805-.069.51-.125-5.1-.125s-7.905.056-5.1.125M182.2 34c-1.347.241-1.41.291-.4.314.66.015 2.01-.117 3-.294 1.615-.287 1.656-.319.4-.313a21.25 21.25 0 0 0-3 .293m33 .02c.99.177 2.34.312 3 .3.885-.015.728-.104-.6-.34-.99-.177-2.34-.312-3-.3-.885.015-.728.104.6.34m-39.2.78c-1.357.286-1.363.295-.2.307.66.008 1.65-.131 2.2-.307 1.312-.42-.004-.42-2 0m46-.02c.999.34 3.482.552 3.167.271-.092-.082-1.067-.252-2.167-.379-1.349-.156-1.674-.121-1 .108m-55.4 1.62c-1.089.277-1.107.307-.2.325.55.01 1.36-.136 1.8-.325.986-.424.066-.424-1.6 0m65.2-.019c.768.348 2.91.575 2.567.272-.092-.081-.887-.257-1.767-.391-1.115-.169-1.358-.133-.8.119M159.6 38c-.804.257-.843.323-.2.332.44.006 1.16-.143 1.6-.332 1.019-.438-.032-.438-1.4 0m79.4 0c.44.189 1.16.338 1.6.332.643-.009.604-.075-.2-.332-1.368-.438-2.419-.438-1.4 0m3.2.8c.44.189 1.16.338 1.6.332.643-.009.604-.075-.2-.332-1.368-.438-2.419-.438-1.4 0m-92.6 2.018c-.438.297-.276.334.6.138 1.471-.329 1.79-.558.767-.55a2.91 2.91 0 0 0-1.367.412m98.833-.274c.092.079.707.264 1.367.412.876.196 1.038.159.6-.138-.54-.365-2.368-.62-1.967-.274M130 48.4c-.77.422-1.22.766-1 .766s1.03-.344 1.8-.766 1.22-.766 1-.766-1.03.344-1.8.766m-9.3 4.629c-1.495.811-1.404 1.149.1.371.66-.341 1.2-.706 1.2-.81 0-.258-.043-.243-1.3.439m157.3-.445c0 .11.72.567 1.6 1.016s1.6.726 1.6.616-.72-.567-1.6-1.016-1.6-.726-1.6-.616m4.886 2.816c.809.55 1.613 1 1.786 1s-.349-.45-1.158-1-1.613-1-1.786-1 .349.45 1.158 1m-166.786.246c-1.363.873-1.805 1.46-.6.797.918-.504 2.356-1.616 2.1-1.624-.11-.003-.785.369-1.5.827m169.7 1.361c.44.359 1.16.828 1.6 1.044l.8.393-.8-.651c-.44-.359-1.16-.828-1.6-1.044l-.8-.393.8.651m-184.215 8.222l-1.385 1.229 1.5-1.077c1.326-.951 1.757-1.381 1.385-1.381-.063 0-.738.553-1.5 1.229m196.559-.12c.316.512 2.656 2.244 2.656 1.966 0-.099-.661-.684-1.468-1.3s-1.343-.916-1.188-.666m-199.759 2.52L97 68.858l1.5-1.077c1.326-.951 1.757-1.381 1.385-1.381-.063 0-.738.553-1.5 1.229M92.4 72.457l-2.2 2.032 2.099-1.681c1.84-1.474 2.814-2.435 2.425-2.395-.068.007-1.114.927-2.324 2.044m214.048-.793l7.152 6.171c0-.305-2.912-2.935-6-5.417-1.43-1.15-1.948-1.489-1.152-.754M83.966 80.1c-3.195 3.135-6.609 6.612-7.588 7.726s-.101.304 1.948-1.8 5.559-5.572 7.8-7.706 3.979-3.889 3.862-3.9-2.826 2.545-6.022 5.68M317.8 82c1.75 1.76 3.271 3.2 3.381 3.2s-1.231-1.44-2.981-3.2-3.271-3.2-3.381-3.2 1.231 1.44 2.981 3.2m6.866 7.4c2.779 3.069 3.867 4.032 1.919 1.7-1.824-2.185-4.189-4.7-4.419-4.7-.12 0 1.005 1.35 2.5 3M72.149 92.684c-1.072 1.256-1.74 2.155-1.485 1.999.559-.344 3.89-4.283 3.622-4.283-.104 0-1.066 1.028-2.137 2.284M328.4 93.8c.517.55 1.006 1 1.088 1 .333 0-1.316-1.976-1.658-1.987-.203-.007.053.437.57.987m2.555 3.119c.848 1.034 1.625 1.881 1.727 1.881.273 0-2.261-3.14-2.805-3.476-.255-.158.23.56 1.078 1.595m2.636 3.469c.466.653 1.051 1.314 1.3 1.468s-.05-.38-.666-1.188c-1.337-1.753-1.841-1.976-.634-.28m-268.047.712c-1.151 1.389-1.638 2.1-1.44 2.1.11 0 .682-.63 1.269-1.4 1.09-1.429 1.222-1.968.171-.7m271.062 3.412c.386.612.803 1.012.926.889s-.193-.623-.702-1.112l-.926-.889.702 1.112m5.354 8.088c.674 1.305 1.228 2.028 1.225 1.6-.002-.22-.371-.85-.821-1.4-.543-.664-.679-.731-.404-.2m-285.807 2.7c-1.377 2.336-1.467 2.535-.766 1.7.813-.968 1.513-2.2 1.251-2.2-.105 0-.323.225-.485.5m288.207 1.3c.674 1.305 1.228 2.028 1.225 1.6-.002-.22-.371-.85-.821-1.4-.543-.664-.679-.731-.404-.2m2.04 3.8c.449.88.906 1.6 1.016 1.6s-.167-.72-.616-1.6-.906-1.6-1.016-1.6.167.72.616 1.6m-293.4.4c-.341.66-.531 1.2-.421 1.2s.48-.54.821-1.2.531-1.2.421-1.2-.48.54-.821 1.2m-4.728 9.419c-.94 1.97-.808 2.305.175.443.446-.846.74-1.608.654-1.695s-.46.477-.829 1.252m-7.623 19.596c-.137.358-.234.951-.215 1.318s.193.136.387-.513c.377-1.262.244-1.887-.172-.805m319.995 5.585c.329 1.471.558 1.79.55.767a2.91 2.91 0 0 0-.412-1.367c-.297-.438-.334-.276-.138.6m.624 2.2c.02 1.039.65 2.746.664 1.8.006-.44-.143-1.16-.332-1.6-.211-.49-.339-.568-.332-.2M37.85 160.05c-.333 1.667-.01 1.99.35.35.152-.691.193-1.341.091-1.442s-.3.389-.441 1.092m324.618 2.55c-.006.44.143 1.16.332 1.6.438 1.019.438-.032 0-1.4-.257-.804-.323-.843-.332-.2m-326.019 3.6a17.47 17.47 0 0 1-.266 1.8l-.206 1 .429-.981c.236-.54.355-1.35.266-1.8-.159-.798-.165-.798-.223-.019m328.444 9.4c0 .77.082 1.085.183.7s.1-1.015 0-1.4-.183-.07-.183.7m-330.26 1.233c-.15 1.133-.192 2.141-.094 2.239s.306-.744.461-1.872.198-2.136.094-2.239-.31.739-.461 1.872m331.081 4.567c.003 1.1.081 1.503.173.895s.09-1.509-.005-2-.171.005-.168 1.105m-331.613.8c.004.88.086 1.193.182.695s.092-1.217-.008-1.6-.179.025-.174.905m331.992 2.6c0 .77.082 1.085.183.7s.1-1.015 0-1.4-.183-.07-.183.7m-332.4.4c0 .77.082 1.085.183.7s.1-1.015 0-1.4-.183-.07-.183.7m332.851 6.4c0 2.09.068 2.945.15 1.9a29.38 29.38 0 0 0 0-3.8c-.082-1.045-.15-.19-.15 1.9M33.374 200c0 5.61.056 7.905.125 5.1a251.33 251.33 0 0 0 0-10.2c-.069-2.805-.125-.51-.125 5.1m333.17 8.4c0 2.09.068 2.945.15 1.9a29.38 29.38 0 0 0 0-3.8c-.082-1.045-.15-.19-.15 1.9M33.68 214.6c-.012.66.123 2.01.3 3 .236 1.328.325 1.485.34.6.012-.66-.123-2.01-.3-3-.236-1.328-.325-1.485-.34-.6m332.413.6c0 .77.082 1.085.183.7s.1-1.015 0-1.4-.183-.07-.183.7m-.379 3.4c.003 1.1.081 1.503.173.895s.09-1.509-.005-2-.171.005-.168 1.105M34.672 223c.127 1.1.297 2.075.379 2.167.281.315.069-2.168-.271-3.167-.229-.674-.264-.349-.108 1m330.221 1.4c0 .77.082 1.085.183.7s.1-1.015 0-1.4-.183-.07-.183.7m-328.631 8.2c.134.88.31 1.675.391 1.767.303.343.076-1.799-.272-2.567-.252-.558-.288-.315-.119.8m.618 2.8c0 .44.144 1.25.32 1.8.254.792.32.833.32.2 0-.44-.144-1.25-.32-1.8-.254-.792-.32-.833-.32-.2m325.776.684c-.135.504-.229 1.276-.21 1.716s.199.098.4-.76c.39-1.662.224-2.5-.19-.956M37.668 238.8c.02 1.039.65 2.746.664 1.8.006-.44-.143-1.16-.332-1.6-.211-.49-.339-.568-.332-.2m323.782 2.45c-.141.703-.181 1.352-.091 1.442s.289-.401.441-1.092.193-1.341.091-1.442-.3.389-.441 1.092M38.468 242c.02 1.039.65 2.746.664 1.8.006-.44-.143-1.16-.332-1.6-.211-.49-.339-.568-.332-.2m322.378 1.667a7.38 7.38 0 0 1-.276 1.4c-.218.695-.207.696.227.02.251-.391.376-1.021.276-1.4-.162-.619-.185-.621-.227-.02m-320.44 5.366a2.91 2.91 0 0 0 .412 1.367c.297.438.334.276.138-.6-.329-1.471-.558-1.79-.55-.767m308.672 25.572c-.366.767-.583 1.395-.482 1.395.274 0 1.488-2.449 1.305-2.632-.087-.087-.457.47-.823 1.237M53.2 279.6c.449.88.906 1.6 1.016 1.6s-.167-.72-.616-1.6-.906-1.6-1.016-1.6.167.72.616 1.6m1.2 2.128c0 .173.45.977 1 1.786s1 1.33 1 1.158-.45-.977-1-1.786-1-1.33-1-1.158m290.253 1.172l-.72 1.3.825-1c.731-.887 1.056-1.6.728-1.6-.062 0-.437.585-.833 1.3m-287.904 2.9c.216.44.685 1.16 1.044 1.6l.651.8-.393-.8c-.216-.44-.685-1.16-1.044-1.6l-.651-.8.393.8m286.204-.1c-1.377 2.336-1.467 2.535-.766 1.7.813-.968 1.513-2.2 1.251-2.2-.105 0-.323.225-.485.5m-8.759 13.2c-.864 1.155-2.611 3.391-3.882 4.969S328 306.871 328 307.035c0 .335 7.038-8.449 7.64-9.535.704-1.269.148-.732-1.446 1.4m-268.419.432c.616.807 1.201 1.468 1.3 1.468.278 0-1.454-2.34-1.966-2.656-.25-.155.05.38.666 1.188m2.621 3.462c.694.877 1.471 1.724 1.727 1.882s-.23-.56-1.078-1.595-1.625-1.881-1.727-1.881.383.718 1.078 1.594m4.993 6.006c1.62 2.04 4.264 4.882 4.403 4.73.066-.071-1.148-1.48-2.698-3.13s-2.316-2.37-1.705-1.6m250.792 2.5L322.6 313l1.7-1.581c1.581-1.471 1.884-1.819 1.581-1.819-.065 0-.83.765-1.7 1.7m-6.389 6.8l-3.992 4.1 4.1-3.992 4.1-4.1c0-.29-.499.184-4.208 3.992m-235.592.3c1.971 1.98 3.673 3.6 3.783 3.6s-1.412-1.62-3.383-3.6-3.673-3.6-3.783-3.6 1.412 1.62 3.383 3.6m4.2 3.766c0 .23 2.515 2.595 4.7 4.419 2.332 1.948 1.369.86-1.7-1.919-1.65-1.495-3-2.62-3-2.5m224.581 2.334l-1.581 1.7 1.7-1.581c.935-.87 1.7-1.635 1.7-1.7 0-.303-.348 0-1.819 1.581m-218.168 3.4c.006.165.501.646 1.1 1.068l1.087.768-.97-1.068c-1.019-1.122-1.238-1.261-1.217-.768m212.387 1.343c-.77.666-2.742 2.233-4.382 3.484-4.013 3.059-4.449 3.431-3.418 2.921 1.116-.552 10.015-7.652 9.566-7.632-.201.009-.996.561-1.766 1.227m-209.876.634c.336.544 3.476 3.078 3.476 2.805 0-.102-.847-.879-1.881-1.727s-1.753-1.333-1.595-1.078m3.876 3.048c0 .099.661.684 1.468 1.3s1.343.916 1.188.666c-.316-.512-2.656-2.244-2.656-1.966m5.089 3.905c.489.509.989.825 1.112.702s-.277-.54-.889-.926l-1.112-.702.889.926m185.887 3.357c-.427.323-.596.588-.376.588s.749-.265 1.176-.588.597-.587.377-.587-.749.264-1.177.587m-177.576 2.02c.44.359 1.16.828 1.6 1.044l.8.393-.8-.651c-.44-.359-1.16-.828-1.6-1.044l-.8-.393.8.651m173.9.239c-1.363.873-1.805 1.46-.6.797.918-.504 2.356-1.616 2.1-1.624-.11-.003-.785.369-1.5.827m-169.7 2.318c.55.45 1.18.819 1.4.821.428.003-.295-.551-1.6-1.225-.531-.275-.464-.139.2.404m165.8.036c-.66.437-1.02.792-.8.788.401-.006 2.576-1.565 2.2-1.576-.11-.004-.74.351-1.4.788m-163.8.984c0 .11.72.567 1.6 1.016s1.6.726 1.6.616-.72-.567-1.6-1.016-1.6-.726-1.6-.616m156 3.216c-.99.53-1.658.972-1.484.982.425.024 3.484-1.548 3.484-1.79 0-.265.017-.272-2 .808m-150.8-.404c0 .274 2.449 1.488 2.632 1.305.087-.087-.47-.457-1.237-.823s-1.395-.583-1.395-.482m30.8 12.186a2.91 2.91 0 0 0 1.367.412c1.023.008.704-.221-.767-.55-.876-.196-1.038-.159-.6.138m89.2.018c-.824.264-.859.326-.2.354.44.019 1.07-.141 1.4-.354.701-.453.214-.453-1.2 0m-86.2.8c.44.189 1.16.338 1.6.332.643-.009.604-.075-.2-.332-1.368-.438-2.419-.438-1.4 0m83 0c-.804.257-.843.323-.2.332.44.006 1.16-.143 1.6-.332 1.019-.438-.032-.438-1.4 0m-78 1.2c1.368.438 2.419.438 1.4 0-.44-.189-1.16-.338-1.6-.332-.643.009-.604.075.2.332m73 .019c-.558.252-.315.288.8.119.88-.134 1.675-.31 1.767-.391.343-.303-1.799-.076-2.567.272m-60.9 2.257c.385.1 1.015.1 1.4 0s.07-.183-.7-.183-1.085.082-.7.183m47.3.124c-1.663.423-.026.442 2 .023 1.345-.278 1.409-.331.4-.33-.66.001-1.74.139-2.4.307m-41.695.687c.609.092 1.509.09 2-.005s-.005-.171-1.105-.168-1.503.081-.895.173m37.2 0c.609.092 1.509.09 2-.005s-.005-.171-1.105-.168-1.503.081-.895.173m-33.605.389c.385.1 1.015.1 1.4 0s.07-.183-.7-.183-1.085.082-.7.183m30.4 0c.385.1 1.015.1 1.4 0s.07-.183-.7-.183-1.085.082-.7.183m-24.987.419c1.163.081 2.963.081 4-.002s.087-.148-2.113-.147-3.049.068-1.887.149m17.2 0c1.163.081 2.963.081 4-.002s.087-.148-2.113-.147-3.049.068-1.887.149" fill="#7c7c7c"/></svg>